<?xml version="1.0" standalone="no"?>
<!DOCTYPE svg PUBLIC "-//W3C//DTD SVG 20010904//EN"
 "http://www.w3.org/TR/2001/REC-SVG-20010904/DTD/svg10.dtd">
<svg version="1.0" xmlns="http://www.w3.org/2000/svg"
 width="64.000000pt" height="64.000000pt" viewBox="0 0 64.000000 64.000000"
 preserveAspectRatio="xMidYMid meet">

<g transform="translate(0.000000,64.000000) scale(0.100000,-0.100000)"
fill="#000000" stroke="none">
<path d="M225 627 c-87 -29 -157 -94 -198 -185 -31 -70 -30 -179 4 -252 95
-202 355 -249 515 -93 66 64 89 123 89 223 0 71 -4 93 -25 134 -32 63 -94 124
-155 155 -59 29 -169 38 -230 18z m-5 -175 c-20 -76 16 -164 88 -213 30 -20
48 -24 109 -24 40 0 73 -2 73 -6 0 -19 -75 -73 -118 -84 -202 -53 -344 197
-192 338 23 22 44 37 46 34 3 -3 0 -23 -6 -45z m50 -12 c0 -5 -4 -10 -10 -10
-5 0 -10 5 -10 10 0 6 5 10 10 10 6 0 10 -4 10 -10z"/>
</g>
</svg>
